<svg viewBox="0 0 180 132" fill="none" xmlns="http://www.w3.org/2000/svg">
  <defs>
    <linearGradient id="jrnCyan" x1="0" y1="0" x2="1" y2="0"><stop stop-color="#0891B2"/><stop offset="1" stop-color="#67E8F9"/></linearGradient>
    <filter id="jrnGlow" x="-20%" y="-20%" width="140%" height="140%"><feGaussianBlur stdDeviation="3" result="b"/><feMerge><feMergeNode in="b"/><feMergeNode in="SourceGraphic"/></feMerge></filter>
  </defs>
  <path d="M78 98 102 98 106 108 74 108Z" fill="#243247"/>
  <path d="M84 108 96 108 94 116 86 116Z" fill="#1A2433"/>
  <path d="M34 8 146 8 146 84 34 84Z" fill="#FFFFFF"/>
  <path d="M34 8 48 0 160 0 146 8Z" fill="#F8FAFC"/>
  <path d="M34 8 48 0 48 76 34 84Z" fill="#C9D4E0"/>
  <path d="M42 16 138 16 138 76 42 76Z" fill="#1E2836"/>
  <path d="M42 16 138 16 138 26 42 26Z" fill="url(#jrnCyan)" filter="url(#jrnGlow)"/>
  <rect x="48" y="34" width="14" height="10" rx="1" fill="#22D3EE" opacity=".4"/>
  <rect x="66" y="36" width="40" height="3" rx="1" fill="#D5DDE8"/>
  <rect x="66" y="41" width="28" height="3" rx="1" fill="#B8C5D4"/>
  <circle cx="128" cy="39" r="4" fill="#34D399"/>
  <path d="M125.5 39l1.5 1.5 4-4" stroke="#FFFFFF" stroke-width="1.5" stroke-linecap="round" stroke-linejoin="round"/>
  <rect x="48" y="50" width="14" height="10" rx="1" fill="#22D3EE" opacity=".25"/>
  <rect x="66" y="52" width="36" height="3" rx="1" fill="#D5DDE8"/>
  <rect x="66" y="57" width="24" height="3" rx="1" fill="#B8C5D4"/>
  <circle cx="128" cy="55" r="4" fill="#EF4444"/>
</svg>
